<svg width="145" height="20" viewBox="0 0 145 20" fill="none" xmlns="http://www.w3.org/2000/svg">
<path d="M10.9268 17.2729H10.5623L10.4508 17.62L9.84847 19.4945H0.693575L6.57705 1.83297H20.9536L26.8371 19.4945H17.9537L17.3495 17.6196L17.2378 17.2729H16.8736H10.9268ZM15.5415 13.3854H16.2184L16.0194 12.7384L14.2433 6.96221L13.7653 5.40801L13.2874 6.96221L11.5112 12.7384L11.3123 13.3854H11.9892H15.5415ZM47.1303 12.319L53.1786 19.4945H42.9459L39.4629 15.2348L38.5758 14.1499V15.5513V19.4945H29.7836L29.3628 10.6519V1.83297H47.5126C49.3943 1.83297 50.7604 2.45754 51.6549 3.35262C52.5541 4.25243 53.0072 5.45546 53.0072 6.66485C53.0072 7.87424 52.5541 9.07727 51.6549 9.97707C50.7604 10.8722 49.3943 11.4967 47.5126 11.4967H46.4372L47.1303 12.319ZM39.0758 5.72053H38.5758V6.22053V9.77511V10.2751H39.0758H42.1841C42.9669 10.2751 43.5985 10.0109 44.037 9.57382C44.4705 9.14164 44.6859 8.56921 44.6923 8.0035C44.6988 7.43817 44.4966 6.86384 44.0765 6.42867C43.651 5.9878 43.0318 5.72053 42.2648 5.72053H39.0758ZM66.5557 7.86229L71.29 1.83297H81.5373L74.2122 10.7916L73.9407 11.1236L74.2275 11.4424L81.4698 19.4945H71.2789L66.5442 13.8955L65.6624 12.8527V14.2183V19.4945H56.8935V1.83297H65.6624V7.5535V8.99987L66.5557 7.86229ZM107.867 12.1366L108.347 13.7835L108.827 12.1366L111.83 1.83297H120.974L115.091 19.4945H101.602L95.7188 1.83297H104.863L107.867 12.1366ZM133.213 15.1627H144.258V19.4945H123.944V1.83297H144.258V7.0535H133.213H132.713V7.5535V9.33079V9.83079H133.213H144.258V12.3854H133.213H132.713V12.8854V14.6627V15.1627H133.213ZM84.4241 5.25456H93.1931V19.4945H84.4241V5.25456ZM84.4241 0.5H93.1931V3.49891H84.4241V0.5Z" fill="#3F3F46" stroke="#3F3F46"/>
</svg>
